<svg width="150" height="24" viewBox="0 0 150 24" fill="none" xmlns="http://www.w3.org/2000/svg">
<path fill-rule="evenodd" clip-rule="evenodd" d="M21.5461 18.3659C19.6179 20.8098 16.1309 22.8728 12.2197 21.9858C8.61353 21.168 7.79215 17.0334 6.99426 13.0171C6.08589 8.44464 5.20798 4.02548 0.285891 4.82836C0.0913988 4.86008 -0.0661203 4.67569 0.0280158 4.50256C0.944945 2.81625 3.93626 0.0688678 6.9133 0.254933C10.9563 0.50762 12.4724 3.28717 14.2412 11.8783C15.4272 17.6389 18.5394 17.8081 20.955 16.6491C20.6259 15.4935 20.3788 14.2498 20.134 13.0172C19.2256 8.44472 18.3477 4.02549 13.4256 4.82836C13.2311 4.86008 13.0736 4.67569 13.1677 4.50256C14.0846 2.81625 17.076 0.0688678 20.053 0.254933C23.8188 0.490293 25.3923 2.91788 27.0197 10.192C27.0463 10.0574 27.0728 9.92231 27.0994 9.78697C27.8759 5.83287 29.1286 2.33199 32.4347 0.862614C39.0045 -2.05732 46.885 2.63022 47.3437 11.9819C47.5964 17.1338 45.0695 21.7923 40.0158 22.0881C35.7025 22.3406 35.1008 18.7941 35.1938 16.8343C35.2013 16.676 35.3566 16.5724 35.5102 16.6116C37.438 17.1049 40.1357 16.8796 41.2792 12.9916C42.5426 8.69595 40.7738 4.18978 38.247 3.9373C36.2355 3.73632 34.8778 8.13367 34.4567 10.562C32.6879 19.1532 31.1717 21.9327 27.1288 22.1854C23.1717 22.1854 21.8068 19.5405 21.5461 18.3659ZM133.129 19.0884V7.27815H136.299V19.0884H133.129ZM134.692 4.84466C134.082 4.84466 133.605 4.69583 133.263 4.39815C132.921 4.10048 132.75 3.67629 132.75 3.1256C132.75 2.61955 132.921 2.21025 133.263 1.89769C133.62 1.57025 134.097 1.40653 134.692 1.40653C135.302 1.40653 135.778 1.56281 136.121 1.87536C136.463 2.17304 136.634 2.58978 136.634 3.1256C136.634 3.64653 136.456 4.06327 136.098 4.37583C135.756 4.68839 135.287 4.84466 134.692 4.84466ZM138.888 19.0884V7.27816H141.924L141.982 8.82507C142.067 8.71575 142.159 8.60941 142.259 8.50607C142.691 8.05956 143.204 7.70235 143.8 7.43444C144.395 7.16653 145.02 7.03258 145.675 7.03258C146.568 7.03258 147.312 7.21118 147.908 7.56839C148.518 7.9256 148.972 8.46886 149.269 9.19816C149.582 9.91257 149.738 10.7982 149.738 11.8549V19.0884H146.568V12.1005C146.568 11.5647 146.494 11.1182 146.345 10.7609C146.196 10.4037 145.965 10.1433 145.653 9.97955C145.355 9.80095 144.983 9.72653 144.536 9.7563C144.179 9.7563 143.844 9.81583 143.532 9.9349C143.234 10.0391 142.974 10.1954 142.75 10.4037C142.542 10.6121 142.371 10.8502 142.237 11.1182C142.118 11.3861 142.058 11.6763 142.058 11.9889V19.0884H140.496H139.58H138.888ZM119.138 7.27816V24H122.33V17.7919C122.343 17.8059 122.357 17.8199 122.371 17.8339C122.379 17.8428 122.388 17.8516 122.397 17.8605C122.829 18.2921 123.35 18.6419 123.96 18.9098C124.585 19.1628 125.24 19.2893 125.924 19.2893C126.951 19.2893 127.867 19.0288 128.671 18.5079C129.474 17.9721 130.107 17.2428 130.568 16.32C131.03 15.3972 131.26 14.3479 131.26 13.1721C131.26 11.9814 131.022 10.9321 130.546 10.0242C130.085 9.10141 129.452 8.37955 128.648 7.85863C127.859 7.32281 126.951 7.0549 125.924 7.0549C125.255 7.0549 124.615 7.18142 124.005 7.43444C123.394 7.68746 122.881 8.0149 122.464 8.41676C122.384 8.49643 122.311 8.57756 122.243 8.66015L122.196 7.27816H119.138ZM126.751 16.1414C126.304 16.4242 125.791 16.5656 125.21 16.5656C124.615 16.5656 124.094 16.4242 123.647 16.1414C123.201 15.8586 122.851 15.4642 122.598 14.9582C122.345 14.4372 122.218 13.8419 122.218 13.1721C122.218 12.5023 122.345 11.9144 122.598 11.4084C122.851 10.8875 123.201 10.493 123.647 10.2251C124.094 9.94234 124.615 9.80095 125.21 9.80095C125.805 9.80095 126.319 9.94234 126.751 10.2251C127.197 10.5079 127.547 10.9023 127.8 11.4084C128.053 11.9144 128.179 12.5023 128.179 13.1721C128.179 13.8419 128.053 14.4372 127.8 14.9582C127.547 15.4642 127.197 15.8586 126.751 16.1414ZM110.08 19.3116C109.053 19.3116 108.131 19.0512 107.312 18.5302C106.493 17.9944 105.846 17.2726 105.37 16.3646C104.908 15.4419 104.677 14.3777 104.677 13.1721C104.677 11.9963 104.908 10.947 105.37 10.0242C105.846 9.1014 106.486 8.3721 107.29 7.83629C108.108 7.30048 109.038 7.03257 110.08 7.03257C110.631 7.03257 111.159 7.12187 111.665 7.30048C112.186 7.4642 112.648 7.69489 113.05 7.99257C113.284 8.15988 113.492 8.33894 113.675 8.52976V2.56746H116.845V19.0884H113.853L113.786 17.7104C113.57 17.9727 113.302 18.2162 112.983 18.4409C112.596 18.7088 112.149 18.9246 111.643 19.0884C111.152 19.2372 110.631 19.3116 110.08 19.3116ZM110.795 16.6772C111.39 16.6772 111.911 16.5284 112.357 16.2307C112.804 15.933 113.154 15.5237 113.407 15.0028C113.66 14.4819 113.786 13.8716 113.786 13.1721C113.786 12.4874 113.66 11.8847 113.407 11.3637C113.154 10.8279 112.804 10.4186 112.357 10.1358C111.911 9.83815 111.39 9.68931 110.795 9.68931C110.199 9.68931 109.678 9.83815 109.232 10.1358C108.8 10.4186 108.458 10.8279 108.205 11.3637C107.967 11.8847 107.848 12.4874 107.848 13.1721C107.848 13.8716 107.967 14.4819 108.205 15.0028C108.458 15.5237 108.8 15.933 109.232 16.2307C109.678 16.5284 110.199 16.6772 110.795 16.6772ZM100.087 2.56746V19.0884H103.257V2.56746H100.087ZM91.0723 19.0884V7.27816H94.1309L94.1872 9.19293C94.3028 9.00093 94.4329 8.81663 94.5774 8.64002C94.9793 8.13397 95.4481 7.73955 95.9839 7.45676C96.5346 7.17397 97.1076 7.03258 97.703 7.03258C97.956 7.03258 98.2016 7.0549 98.4397 7.09956C98.6779 7.14421 98.8788 7.1963 99.0425 7.25583L98.1942 10.7386C98.0155 10.6493 97.7997 10.5749 97.5467 10.5154C97.2937 10.4409 97.0332 10.4037 96.7653 10.4037C96.4081 10.4037 96.0732 10.4707 95.7607 10.6047C95.463 10.7237 95.2025 10.9023 94.9793 11.1405C94.756 11.3637 94.5774 11.6316 94.4435 11.9442C94.3244 12.2568 94.2649 12.5991 94.2649 12.9712V19.0884H91.0723ZM80.0179 18.5302C80.9704 19.0512 82.0495 19.3116 83.2551 19.3116C84.4458 19.3116 85.51 19.0512 86.4476 18.5302C87.4002 17.9944 88.1444 17.2651 88.6802 16.3423C89.216 15.4195 89.4839 14.3628 89.4839 13.1721C89.4839 11.9814 89.216 10.9321 88.6802 10.0242C88.1444 9.10141 87.4002 8.37211 86.4476 7.8363C85.51 7.30049 84.4458 7.03258 83.2551 7.03258C82.0495 7.03258 80.9704 7.30049 80.0179 7.8363C79.0802 8.37211 78.336 9.10141 77.7853 10.0242C77.2495 10.9321 76.9816 11.9814 76.9816 13.1721C76.9816 14.3628 77.2495 15.4195 77.7853 16.3423C78.336 17.2651 79.0802 17.9944 80.0179 18.5302ZM84.8179 16.1191C84.3565 16.4019 83.8355 16.5433 83.2551 16.5433C82.6597 16.5433 82.1314 16.4019 81.67 16.1191C81.2086 15.8214 80.8439 15.4195 80.576 14.9135C80.3081 14.3926 80.1816 13.8121 80.1965 13.1721C80.1816 12.5172 80.3081 11.9368 80.576 11.4307C80.8439 10.9247 81.2086 10.5228 81.67 10.2251C82.1314 9.92746 82.6597 9.77862 83.2551 9.77862C83.8355 9.77862 84.3565 9.92746 84.8179 10.2251C85.2793 10.5079 85.6365 10.9098 85.8895 11.4307C86.1574 11.9368 86.2914 12.5172 86.2914 13.1721C86.2914 13.8121 86.1574 14.3926 85.8895 14.9135C85.6365 15.4195 85.2793 15.8214 84.8179 16.1191ZM60.3486 19.0884L55.5932 3.46048H59.0314L61.5765 12.1898C61.6807 12.5023 61.77 12.8447 61.8444 13.2168C61.9337 13.574 62.0007 13.9237 62.0453 14.2661C62.0546 14.3168 62.0634 14.3672 62.0719 14.4172L62.09 14.333C62.1793 13.9014 62.2611 13.5219 62.3356 13.1944C62.4249 12.8521 62.529 12.5098 62.6481 12.1674L65.1039 5.71536H67.8723L70.2835 12.1674C70.4621 12.614 70.6035 13.0456 70.7076 13.4623C70.7859 13.7265 70.8545 13.9874 70.9135 14.2451L70.9755 13.8419C71.0053 13.6335 71.05 13.3954 71.1095 13.1274C71.169 12.8447 71.2583 12.5172 71.3774 12.1451L73.9002 3.46048H77.2937L72.4937 19.0884H70.0155L66.3468 10.3089L62.916 19.0884H60.3486Z" fill="black" fill-opacity="0.9"/>
</svg>
